<svg width="25" height="26" viewBox="0 0 25 26" fill="none" xmlns="http://www.w3.org/2000/svg">
<path d="M12.5 23.1904C9.76736 23.1904 7.14664 22.1048 5.21437 20.1726C3.2821 18.2403 2.19656 15.6196 2.19656 12.8869C2.19656 10.1543 3.2821 7.53357 5.21437 5.6013C7.14664 3.66903 9.76736 2.58349 12.5 2.58349C15.2326 2.58349 17.8534 3.66903 19.7856 5.6013C21.7179 7.53357 22.8034 10.1543 22.8034 12.8869C22.8034 15.6196 21.7179 18.2403 19.7856 20.1726C17.8534 22.1048 15.2326 23.1904 12.5 23.1904ZM12.5 24.6623C15.623 24.6623 18.6181 23.4217 20.8264 21.2134C23.0347 19.0051 24.2754 16.0099 24.2754 12.8869C24.2754 9.76391 23.0347 6.7688 20.8264 4.56049C18.6181 2.35219 15.623 1.11157 12.5 1.11157C9.37698 1.11157 6.38187 2.35219 4.17356 4.56049C1.96525 6.7688 0.72464 9.76391 0.72464 12.8869C0.72464 16.0099 1.96525 19.0051 4.17356 21.2134C6.38187 23.4217 9.37698 24.6623 12.5 24.6623V24.6623Z" fill="#1262AF"/>
<path d="M9.87143 7.88667C10.0103 7.81516 10.1662 7.78336 10.3219 7.79474C10.4777 7.80612 10.6273 7.86026 10.7543 7.95118L16.6967 12.1957C16.8067 12.2743 16.8964 12.3779 16.9583 12.4981C17.0202 12.6183 17.0525 12.7516 17.0525 12.8867C17.0525 13.0219 17.0202 13.1552 16.9583 13.2754C16.8964 13.3956 16.8067 13.4992 16.6967 13.5778L10.7543 17.8223C10.6274 17.9132 10.4778 17.9673 10.3221 17.9786C10.1664 17.99 10.0106 17.9583 9.87183 17.8868C9.73302 17.8154 9.6166 17.7071 9.53535 17.5738C9.45411 17.4405 9.41119 17.2874 9.41132 17.1313V8.6422C9.41115 8.48614 9.45401 8.33305 9.53518 8.19976C9.61635 8.06648 9.7327 7.95814 9.87143 7.88667V7.88667Z" fill="#1262AF"/>
</svg>
